# xmcd CD Database Entry
#
# Track frame offsets:
# 150
# 19316
# 36946
# 59376
# 75202
# 85697
# 98561
# 117757
# 138444
# 160661
# 181979
# 204582
# 226045
# 241246
# 260512
# 282860
# 298441
# 318673
#
# Disc length: 4520 seconds
#
# Revision: 12
# Processed by: cddbd v1.4PL0 Copyright (c) Steve Scherf et al.
# Submitted via: tcd 2.0b
#
DISCID=f011a612
DTITLE=GRUPO FUNDO DE QUINTAL
DYEAR=1900
DGENRE=
TTITLE0=CACIQUEANDO
TTITLE1=CHEGA PRA SAMBAR
TTITLE2=MADRUGADA NA COLINA
TTITLE3=O SHOW TEM QUE CONTINUAR
TTITLE4=CHUA, CHUA
TTITLE5=BAIANA SERRANA
TTITLE6=QUANDO A IDADE CHEGAR...
TTITLE7=ROSALINA DO SERENO
TTITLE8=A AMIZADE
TTITLE9=SO PRA CONTRARIAR
TTITLE10=QUEM AMA
TTITLE11=MAIS DO QUE A RAZAO
TTITLE12=CANTEI SO PRA DESTRAIR 
TTITLE13=NOSSO SAMBA...
TTITLE14=BATUCADA DOS NOSSOS TANTANS
TTITLE15=O QUE E ISSO MEU AMOR
TTITLE16=EU E VOCE SEMPRE
TTITLE17=O RIO DE JANEIRO CONT...
EXTD=SIMPLICIDADE (ao vivo)
EXTT0=
EXTT1=MEU CASTELO E DE CERA
EXTT2=ETA VIDA...
EXTT3=
EXTT4=
EXTT5=
EXTT6=PARABENS PRA VOCE
EXTT7=VAI LA, VAI LA
EXTT8=LUCIDEZ
EXTT9=IRENE
EXTT10=
EXTT11=AMOR DOS DEUSES
EXTT12=
EXTT13=MIUDINHO MEU BEM...
EXTT14=ALVORADA
EXTT15=
EXTT16=
EXTT17=
PLAYORDER=
